<svg xmlns="http://www.w3.org/2000/svg" xmlns:xlink="http://www.w3.org/1999/xlink" width="500" zoomAndPan="magnify" viewBox="0 0 375 374.999991" height="500" preserveAspectRatio="xMidYMid meet" version="1.0"><defs><g/></defs><g fill="#ffde59" fill-opacity="1"><g transform="translate(107.631566, 347.966476)"><g><path d="M 78.140625 -112.703125 C 79.535156 -112.191406 80.234375 -110.988281 80.234375 -109.09375 L 78.046875 -91.90625 C 77.921875 -90.644531 77.050781 -90.015625 75.4375 -90.015625 C 73.820312 -90.015625 72.285156 -90.328125 70.828125 -90.953125 C 64.691406 -93.679688 59.597656 -95.046875 55.546875 -95.046875 C 51.492188 -95.046875 48.265625 -93.367188 45.859375 -90.015625 C 43.453125 -86.660156 41.519531 -81.847656 40.0625 -75.578125 C 37.34375 -63.867188 35.984375 -53.171875 35.984375 -43.484375 C 35.984375 -27.910156 40.003906 -20.125 48.046875 -20.125 C 53.867188 -20.125 58.582031 -20.867188 62.1875 -22.359375 C 65.800781 -23.847656 68.144531 -24.59375 69.21875 -24.59375 C 71.4375 -24.59375 72.546875 -23.644531 72.546875 -21.75 L 70.546875 -5.03125 C 70.421875 -3.894531 70.179688 -3.210938 69.828125 -2.984375 C 69.484375 -2.765625 69.023438 -2.53125 68.453125 -2.28125 C 60.796875 -0.0625 53.597656 1.046875 46.859375 1.046875 C 40.117188 1.046875 34.800781 0.191406 30.90625 -1.515625 C 27.007812 -3.222656 23.921875 -5.421875 21.640625 -8.109375 C 19.367188 -10.804688 17.535156 -14.050781 16.140625 -17.84375 C 13.671875 -24.363281 12.4375 -32.382812 12.4375 -41.90625 C 12.4375 -51.4375 13.050781 -59.726562 14.28125 -66.78125 C 15.519531 -73.84375 16.816406 -79.585938 18.171875 -84.015625 C 19.535156 -88.453125 21.359375 -92.710938 23.640625 -96.796875 C 25.921875 -100.878906 28.582031 -104.25 31.625 -106.90625 C 38.269531 -112.726562 47.066406 -115.640625 58.015625 -115.640625 C 65.359375 -115.640625 72.066406 -114.660156 78.140625 -112.703125 Z M 78.140625 -112.703125 "/></g></g></g><g fill="#ffde59" fill-opacity="1"><g transform="translate(0.0000045, 294.667459)"><g><path d="M 91.796875 -81.828125 L 52.9375 -80.5 L 44.1875 -3.890625 C 43.863281 -2.023438 42.8125 -1.007812 41.03125 -0.84375 L 16.03125 0.484375 C 14.25 0.484375 13.359375 -0.285156 13.359375 -1.828125 L 34.484375 -185.515625 C 34.804688 -187.222656 35.859375 -188.15625 37.640625 -188.3125 L 104.171875 -191.109375 C 106.191406 -190.859375 107.203125 -189.765625 107.203125 -187.828125 L 104.171875 -162.6875 C 103.929688 -160.582031 102.878906 -159.492188 101.015625 -159.421875 L 61.921875 -158.078125 L 56.578125 -111.453125 L 94.953125 -112.796875 C 97.054688 -112.710938 98.109375 -111.660156 98.109375 -109.640625 L 94.953125 -84.875 C 94.617188 -83.007812 93.566406 -81.992188 91.796875 -81.828125 Z M 91.796875 -81.828125 "/></g></g></g><g fill="#ffde59" fill-opacity="1"><g transform="translate(98.985327, 195.065214)"><g><path d="M 116.671875 -2.90625 C 116.671875 -1.289062 115.582031 -0.484375 113.40625 -0.484375 L 86.078125 0.484375 C 84.867188 0.398438 83.976562 -0.367188 83.40625 -1.828125 L 52.9375 -79.046875 L 44.4375 -3.40625 C 44.195312 -1.457031 43.1875 -0.441406 41.40625 -0.359375 L 16.03125 0.484375 C 14.25 0.328125 13.359375 -0.441406 13.359375 -1.828125 L 34.359375 -184.546875 C 34.523438 -186.003906 34.890625 -186.992188 35.453125 -187.515625 C 36.015625 -188.046875 40.300781 -188.65625 48.3125 -189.34375 C 56.332031 -190.03125 67.019531 -190.375 80.375 -190.375 C 93.726562 -190.375 104.023438 -186.832031 111.265625 -179.75 C 118.515625 -172.664062 122.140625 -163.539062 122.140625 -152.375 C 122.140625 -141.207031 120.800781 -131.351562 118.125 -122.8125 C 115.457031 -114.269531 111.046875 -106.597656 104.890625 -99.796875 C 98.742188 -93.003906 91.054688 -87.945312 81.828125 -84.625 L 116.3125 -4.375 C 116.550781 -3.882812 116.671875 -3.394531 116.671875 -2.90625 Z M 62.28125 -162.09375 L 55.484375 -101.75 C 70.460938 -102.632812 80.785156 -109.429688 86.453125 -122.140625 C 89.523438 -129.097656 91.0625 -136.160156 91.0625 -143.328125 C 91.0625 -150.492188 89.582031 -155.507812 86.625 -158.375 C 83.675781 -161.25 79.40625 -162.6875 73.8125 -162.6875 C 68.226562 -162.6875 64.382812 -162.488281 62.28125 -162.09375 Z M 62.28125 -162.09375 "/></g></g></g><g fill="#ffde59" fill-opacity="1"><g transform="translate(272.854909, 294.667459)"><g><path d="M 10.6875 1.828125 C 8.664062 1.828125 7.65625 0.851562 7.65625 -1.09375 L 10.6875 -26.46875 C 11.007812 -28.25 12.0625 -29.21875 13.84375 -29.375 C 26.46875 -30.675781 34.800781 -32.679688 38.84375 -35.390625 C 42.894531 -38.097656 44.921875 -43.5 44.921875 -51.59375 C 44.921875 -59.695312 42.851562 -70.242188 38.71875 -83.234375 C 34.59375 -96.222656 31.925781 -104.863281 30.71875 -109.15625 C 26.832031 -122.914062 24.890625 -134.1875 24.890625 -142.96875 C 24.890625 -151.75 26.304688 -159.253906 29.140625 -165.484375 C 31.972656 -171.722656 36.019531 -176.703125 41.28125 -180.421875 C 51.476562 -187.546875 65.195312 -191.109375 82.4375 -191.109375 C 84.625 -191.109375 85.71875 -190.097656 85.71875 -188.078125 L 82.4375 -162.9375 C 82.113281 -160.914062 81.101562 -159.820312 79.40625 -159.65625 C 63.695312 -158.601562 55.84375 -153.953125 55.84375 -145.703125 C 55.84375 -138.085938 59.179688 -123.128906 65.859375 -100.828125 C 72.546875 -78.535156 75.890625 -62.570312 75.890625 -52.9375 C 75.890625 -16.425781 54.15625 1.828125 10.6875 1.828125 Z M 10.6875 1.828125 "/></g></g></g><g fill="#ffde59" fill-opacity="1"><g transform="translate(215.988139, 190.349699)"><g><path d="M 66.890625 -61.171875 L 39.078125 -60.09375 L 34.875 -23.421875 L 69.125 -24.59375 C 70.675781 -24.53125 71.453125 -23.753906 71.453125 -22.265625 L 69.125 -3.75 C 69.007812 -2.5 68.234375 -1.726562 66.796875 -1.4375 L 11.796875 0.359375 C 10.492188 0.359375 9.84375 -0.207031 9.84375 -1.34375 L 25.3125 -136.640625 C 25.550781 -137.890625 26.320312 -138.578125 27.625 -138.703125 L 76.640625 -140.390625 C 78.128906 -140.210938 78.875 -139.410156 78.875 -137.984375 L 76.640625 -119.46875 C 76.460938 -117.976562 75.6875 -117.175781 74.3125 -117.0625 L 45.515625 -116.25 L 41.671875 -82.984375 L 69.21875 -83.96875 C 70.769531 -83.90625 71.546875 -83.128906 71.546875 -81.640625 L 69.21875 -63.40625 C 68.976562 -62.03125 68.203125 -61.285156 66.890625 -61.171875 Z M 66.890625 -61.171875 "/></g></g></g><g fill="#ffde59" fill-opacity="1"><g transform="translate(175.721844, 347.966476)"><g><path d="M 44.953125 1.046875 C 33.722656 1.046875 25.492188 -2.320312 20.265625 -9.0625 C 15.046875 -15.800781 12.4375 -25.628906 12.4375 -38.546875 C 12.4375 -44.554688 13.097656 -52.40625 14.421875 -62.09375 C 15.753906 -71.78125 16.988281 -78.820312 18.125 -83.21875 C 19.269531 -87.625 20.882812 -91.929688 22.96875 -96.140625 C 25.0625 -100.347656 27.535156 -103.8125 30.390625 -106.53125 C 36.648438 -112.601562 45.128906 -115.640625 55.828125 -115.640625 C 71.015625 -115.640625 80.859375 -110.070312 85.359375 -98.9375 C 87.765625 -92.988281 88.96875 -85.785156 88.96875 -77.328125 C 88.96875 -68.878906 88.316406 -60.128906 87.015625 -51.078125 C 85.722656 -42.023438 84.503906 -35.332031 83.359375 -31 C 82.222656 -26.664062 80.625 -22.425781 78.5625 -18.28125 C 76.507812 -14.132812 74.054688 -10.695312 71.203125 -7.96875 C 64.941406 -1.957031 56.191406 1.046875 44.953125 1.046875 Z M 61.71875 -40.546875 C 62.414062 -43.898438 63.316406 -50.179688 64.421875 -59.390625 C 65.523438 -68.597656 66.078125 -75.414062 66.078125 -79.84375 C 66.078125 -90.613281 62.1875 -96 54.40625 -96 C 50.726562 -96 47.703125 -94.253906 45.328125 -90.765625 C 42.960938 -87.285156 41.050781 -81.492188 39.59375 -73.390625 C 36.675781 -56.929688 35.21875 -43.570312 35.21875 -33.3125 C 35.21875 -23.0625 39.082031 -17.9375 46.8125 -17.9375 C 50.476562 -17.9375 53.53125 -19.691406 55.96875 -23.203125 C 58.40625 -26.722656 60.320312 -32.503906 61.71875 -40.546875 Z M 61.71875 -40.546875 "/></g></g></g></svg>