<svg xmlns="http://www.w3.org/2000/svg" xmlns:xlink="http://www.w3.org/1999/xlink" width="500" zoomAndPan="magnify" viewBox="0 0 375 374.999991" height="500" preserveAspectRatio="xMidYMid meet" version="1.0"><defs><g/><clipPath id="388f878a92"><path d="M 250.582031 35 L 323 35 L 323 115 L 250.582031 115 Z M 250.582031 35 " clip-rule="nonzero"/></clipPath><clipPath id="5f99082075"><path d="M 71 61.78125 L 133 61.78125 L 133 123 L 71 123 Z M 71 61.78125 " clip-rule="nonzero"/></clipPath><clipPath id="e9725c0f83"><path d="M 241.082031 280 L 295 280 L 295 339 L 241.082031 339 Z M 241.082031 280 " clip-rule="nonzero"/></clipPath><clipPath id="5b5696a4d5"><path d="M 304 205 L 362 205 L 362 277 L 304 277 Z M 304 205 " clip-rule="nonzero"/></clipPath><clipPath id="537c8a5f73"><path d="M 292.089844 213.832031 L 359.289062 201.902344 L 371.875 272.792969 L 304.675781 284.722656 Z M 292.089844 213.832031 " clip-rule="nonzero"/></clipPath><clipPath id="474193a1c0"><path d="M 292.089844 213.832031 L 359.289062 201.902344 L 371.875 272.792969 L 304.675781 284.722656 Z M 292.089844 213.832031 " clip-rule="nonzero"/></clipPath><clipPath id="fe6eb01efb"><path d="M 292.089844 213.832031 L 359.289062 201.902344 L 371.875 272.792969 L 304.675781 284.722656 Z M 292.089844 213.832031 " clip-rule="nonzero"/></clipPath><clipPath id="056bd39cef"><path d="M 333 236 L 338 236 L 338 240 L 333 240 Z M 333 236 " clip-rule="nonzero"/></clipPath><clipPath id="569bab047d"><path d="M 292.089844 213.832031 L 359.289062 201.902344 L 371.875 272.792969 L 304.675781 284.722656 Z M 292.089844 213.832031 " clip-rule="nonzero"/></clipPath><clipPath id="b90838d7f2"><path d="M 292.089844 213.832031 L 359.289062 201.902344 L 371.875 272.792969 L 304.675781 284.722656 Z M 292.089844 213.832031 " clip-rule="nonzero"/></clipPath><clipPath id="60cbcb86a5"><path d="M 292.089844 213.832031 L 359.289062 201.902344 L 371.875 272.792969 L 304.675781 284.722656 Z M 292.089844 213.832031 " clip-rule="nonzero"/></clipPath><clipPath id="a476d03f67"><path d="M 92 282 L 139 282 L 139 353 L 92 353 Z M 92 282 " clip-rule="nonzero"/></clipPath><clipPath id="887fa27f13"><path d="M 128.628906 365.191406 L 75.492188 303.066406 L 102.847656 279.664062 L 155.984375 341.789062 Z M 128.628906 365.191406 " clip-rule="nonzero"/></clipPath><clipPath id="d331d75cd4"><path d="M 155.96875 341.804688 L 102.832031 279.679688 L 75.472656 303.082031 L 128.609375 365.207031 Z M 155.96875 341.804688 " clip-rule="nonzero"/></clipPath><clipPath id="185c7d0e02"><path d="M 155.96875 341.804688 L 102.832031 279.679688 L 75.472656 303.082031 L 128.609375 365.207031 Z M 155.96875 341.804688 " clip-rule="nonzero"/></clipPath><clipPath id="aeb7f9fe38"><path d="M 113 310 L 122 310 L 122 330 L 113 330 Z M 113 310 " clip-rule="nonzero"/></clipPath><clipPath id="430db9e594"><path d="M 128.628906 365.191406 L 75.492188 303.066406 L 102.847656 279.664062 L 155.984375 341.789062 Z M 128.628906 365.191406 " clip-rule="nonzero"/></clipPath><clipPath id="af84afa9cd"><path d="M 155.96875 341.804688 L 102.832031 279.679688 L 75.472656 303.082031 L 128.609375 365.207031 Z M 155.96875 341.804688 " clip-rule="nonzero"/></clipPath><clipPath id="09660981f5"><path d="M 155.96875 341.804688 L 102.832031 279.679688 L 75.472656 303.082031 L 128.609375 365.207031 Z M 155.96875 341.804688 " clip-rule="nonzero"/></clipPath><clipPath id="e82d8bab0a"><path d="M 112 305 L 116 305 L 116 310 L 112 310 Z M 112 305 " clip-rule="nonzero"/></clipPath><clipPath id="1b9c1f9210"><path d="M 128.628906 365.191406 L 75.492188 303.066406 L 102.847656 279.664062 L 155.984375 341.789062 Z M 128.628906 365.191406 " clip-rule="nonzero"/></clipPath><clipPath id="c8ec9ba715"><path d="M 155.96875 341.804688 L 102.832031 279.679688 L 75.472656 303.082031 L 128.609375 365.207031 Z M 155.96875 341.804688 " clip-rule="nonzero"/></clipPath><clipPath id="3b09a0bdef"><path d="M 155.96875 341.804688 L 102.832031 279.679688 L 75.472656 303.082031 L 128.609375 365.207031 Z M 155.96875 341.804688 " clip-rule="nonzero"/></clipPath><clipPath id="bdf19e76e9"><path d="M 104 325 L 127 325 L 127 345 L 104 345 Z M 104 325 " clip-rule="nonzero"/></clipPath><clipPath id="96f4845e86"><path d="M 128.628906 365.191406 L 75.492188 303.066406 L 102.847656 279.664062 L 155.984375 341.789062 Z M 128.628906 365.191406 " clip-rule="nonzero"/></clipPath><clipPath id="6a475cbf57"><path d="M 155.96875 341.804688 L 102.832031 279.679688 L 75.472656 303.082031 L 128.609375 365.207031 Z M 155.96875 341.804688 " clip-rule="nonzero"/></clipPath><clipPath id="744c21a021"><path d="M 155.96875 341.804688 L 102.832031 279.679688 L 75.472656 303.082031 L 128.609375 365.207031 Z M 155.96875 341.804688 " clip-rule="nonzero"/></clipPath><clipPath id="461d5fd065"><path d="M 27 179 L 29 179 L 29 181 L 27 181 Z M 27 179 " clip-rule="nonzero"/></clipPath><clipPath id="34ce55d643"><path d="M 20.753906 118.121094 L 75.398438 152.386719 L 44.320312 201.949219 L -10.324219 167.683594 Z M 20.753906 118.121094 " clip-rule="nonzero"/></clipPath><clipPath id="cd93441d78"><path d="M 75.507812 152.453125 L 20.863281 118.1875 L -10.214844 167.75 L 44.429688 202.015625 Z M 75.507812 152.453125 " clip-rule="nonzero"/></clipPath><clipPath id="dfd6f230d7"><path d="M 19 118 L 57 118 L 57 201 L 19 201 Z M 19 118 " clip-rule="nonzero"/></clipPath><clipPath id="1c55629b16"><path d="M 20.753906 118.121094 L 75.398438 152.386719 L 44.320312 201.949219 L -10.324219 167.683594 Z M 20.753906 118.121094 " clip-rule="nonzero"/></clipPath><clipPath id="2d706a8541"><path d="M 75.507812 152.453125 L 20.863281 118.1875 L -10.214844 167.75 L 44.429688 202.015625 Z M 75.507812 152.453125 " clip-rule="nonzero"/></clipPath><clipPath id="e355896c91"><path d="M 25 183 L 26 183 L 26 184 L 25 184 Z M 25 183 " clip-rule="nonzero"/></clipPath><clipPath id="d32d241037"><path d="M 20.753906 118.121094 L 75.398438 152.386719 L 44.320312 201.949219 L -10.324219 167.683594 Z M 20.753906 118.121094 " clip-rule="nonzero"/></clipPath><clipPath id="925129490c"><path d="M 75.507812 152.453125 L 20.863281 118.1875 L -10.214844 167.75 L 44.429688 202.015625 Z M 75.507812 152.453125 " clip-rule="nonzero"/></clipPath></defs><g fill="#ffde59" fill-opacity="1"><g transform="translate(57.78415, 274.457393)"><g><path d="M 65.3125 -58.234375 L 37.671875 -57.28125 L 31.453125 -2.765625 C 31.222656 -1.441406 30.472656 -0.722656 29.203125 -0.609375 L 11.40625 0.34375 C 10.132812 0.34375 9.5 -0.203125 9.5 -1.296875 L 24.53125 -132.015625 C 24.757812 -133.222656 25.507812 -133.882812 26.78125 -134 L 74.125 -135.984375 C 75.5625 -135.816406 76.28125 -135.039062 76.28125 -133.65625 L 74.125 -115.765625 C 73.957031 -114.265625 73.207031 -113.488281 71.875 -113.4375 L 44.0625 -112.484375 L 40.265625 -79.3125 L 67.5625 -80.265625 C 69.0625 -80.203125 69.8125 -79.453125 69.8125 -78.015625 L 67.5625 -60.390625 C 67.332031 -59.066406 66.582031 -58.347656 65.3125 -58.234375 Z M 65.3125 -58.234375 "/></g></g></g><g fill="#ffde59" fill-opacity="1"><g transform="translate(128.153142, 199.734611)"><g><path d="M 83.03125 -2.078125 C 83.03125 -0.921875 82.25 -0.34375 80.6875 -0.34375 L 61.25 0.34375 C 60.382812 0.289062 59.753906 -0.253906 59.359375 -1.296875 L 37.671875 -56.25 L 31.625 -2.421875 C 31.445312 -1.035156 30.722656 -0.316406 29.453125 -0.265625 L 11.40625 0.34375 C 10.132812 0.226562 9.5 -0.316406 9.5 -1.296875 L 24.453125 -131.328125 C 24.566406 -132.359375 24.820312 -133.0625 25.21875 -133.4375 C 25.625 -133.8125 28.675781 -134.242188 34.375 -134.734375 C 40.082031 -135.222656 47.6875 -135.46875 57.1875 -135.46875 C 66.695312 -135.46875 74.023438 -132.945312 79.171875 -127.90625 C 84.328125 -122.863281 86.90625 -116.367188 86.90625 -108.421875 C 86.90625 -100.472656 85.957031 -93.460938 84.0625 -87.390625 C 82.164062 -81.316406 79.023438 -75.859375 74.640625 -71.015625 C 70.265625 -66.179688 64.796875 -62.582031 58.234375 -60.21875 L 82.765625 -3.109375 C 82.941406 -2.765625 83.03125 -2.421875 83.03125 -2.078125 Z M 44.328125 -115.34375 L 39.484375 -72.40625 C 50.140625 -73.03125 57.484375 -77.863281 61.515625 -86.90625 C 63.703125 -91.863281 64.796875 -96.890625 64.796875 -101.984375 C 64.796875 -107.085938 63.742188 -110.660156 61.640625 -112.703125 C 59.535156 -114.742188 56.492188 -115.765625 52.515625 -115.765625 C 48.546875 -115.765625 45.816406 -115.625 44.328125 -115.34375 Z M 44.328125 -115.34375 "/></g></g></g><g fill="#ffde59" fill-opacity="1"><g transform="translate(208.3319, 200.729401)"><g><path d="M 42.859375 -39.203125 L 25.046875 -38.515625 L 22.34375 -15.015625 L 44.296875 -15.765625 C 45.285156 -15.722656 45.78125 -15.222656 45.78125 -14.265625 L 44.296875 -2.40625 C 44.222656 -1.601562 43.726562 -1.109375 42.8125 -0.921875 L 7.5625 0.234375 C 6.71875 0.234375 6.296875 -0.128906 6.296875 -0.859375 L 16.21875 -87.5625 C 16.375 -88.363281 16.867188 -88.800781 17.703125 -88.875 L 49.109375 -89.96875 C 50.066406 -89.851562 50.546875 -89.335938 50.546875 -88.421875 L 49.109375 -76.5625 C 48.992188 -75.601562 48.5 -75.085938 47.625 -75.015625 L 29.171875 -74.5 L 26.703125 -53.171875 L 44.359375 -53.8125 C 45.347656 -53.769531 45.84375 -53.269531 45.84375 -52.3125 L 44.359375 -40.625 C 44.203125 -39.75 43.703125 -39.273438 42.859375 -39.203125 Z M 42.859375 -39.203125 "/></g></g></g><g fill="#ffde59" fill-opacity="1"><g transform="translate(246.18368, 267.147706)"><g><path d="M 7.609375 1.296875 C 6.160156 1.296875 5.4375 0.601562 5.4375 -0.78125 L 7.609375 -18.828125 C 7.835938 -20.097656 8.582031 -20.789062 9.84375 -20.90625 C 18.832031 -21.832031 24.765625 -23.257812 27.640625 -25.1875 C 30.523438 -27.113281 31.96875 -30.957031 31.96875 -36.71875 C 31.96875 -42.476562 30.5 -49.976562 27.5625 -59.21875 C 24.625 -68.46875 22.722656 -74.617188 21.859375 -77.671875 C 19.097656 -87.460938 17.71875 -95.484375 17.71875 -101.734375 C 17.71875 -107.984375 18.722656 -113.320312 20.734375 -117.75 C 22.753906 -122.1875 25.632812 -125.734375 29.375 -128.390625 C 36.632812 -133.453125 46.394531 -135.984375 58.65625 -135.984375 C 60.21875 -135.984375 61 -135.265625 61 -133.828125 L 58.65625 -115.9375 C 58.425781 -114.5 57.707031 -113.722656 56.5 -113.609375 C 45.320312 -112.859375 39.734375 -109.546875 39.734375 -103.671875 C 39.734375 -98.253906 42.109375 -87.613281 46.859375 -71.75 C 51.617188 -55.882812 54 -44.523438 54 -37.671875 C 54 -11.691406 38.535156 1.296875 7.609375 1.296875 Z M 7.609375 1.296875 "/></g></g></g><g fill="#ffde59" fill-opacity="1"><g transform="translate(128.153142, 317.699324)"><g><path d="M 39.875 -2.375 C 39.800781 -1.957031 39.675781 -1.660156 39.5 -1.484375 C 39.320312 -1.304688 37.59375 -0.914062 34.3125 -0.3125 C 31.03125 0.28125 27.710938 0.578125 24.359375 0.578125 C 18.847656 0.578125 14.628906 -1.203125 11.703125 -4.765625 C 8.773438 -8.328125 7.3125 -13.179688 7.3125 -19.328125 C 7.3125 -30.234375 8.613281 -42.90625 11.21875 -57.34375 C 12.601562 -65.101562 14.300781 -70.554688 16.3125 -73.703125 C 18.425781 -76.984375 20.96875 -79.28125 23.9375 -80.59375 C 27.632812 -82.207031 31.59375 -83.015625 35.8125 -83.015625 C 40.03125 -83.015625 42.851562 -82.898438 44.28125 -82.671875 C 45.71875 -82.441406 46.523438 -82.3125 46.703125 -82.28125 C 47.160156 -82.132812 47.390625 -81.691406 47.390625 -80.953125 L 46.171875 -71.109375 C 46.023438 -70.191406 45.671875 -69.734375 45.109375 -69.734375 C 44.546875 -69.734375 43.238281 -69.878906 41.1875 -70.171875 C 39.144531 -70.472656 37.488281 -70.625 36.21875 -70.625 C 32.832031 -70.625 30.253906 -69.769531 28.484375 -68.0625 C 26.722656 -66.351562 25.410156 -63.070312 24.546875 -58.21875 C 23.679688 -53.363281 22.84375 -46.847656 22.03125 -38.671875 C 21.21875 -30.503906 20.8125 -24.25 20.8125 -19.90625 C 20.8125 -14.789062 23.066406 -12.234375 27.578125 -12.234375 C 28.890625 -12.234375 31.164062 -12.453125 34.40625 -12.890625 C 37.65625 -13.335938 39.507812 -13.5625 39.96875 -13.5625 C 40.71875 -13.5625 41.09375 -13.117188 41.09375 -12.234375 Z M 39.875 -2.375 "/></g></g></g><g fill="#ffde59" fill-opacity="1"><g transform="translate(174.429673, 317.699324)"><g><path d="M 25.328125 0.796875 C 19.378906 0.796875 14.890625 -0.96875 11.859375 -4.5 C 8.828125 -8.03125 7.3125 -12.441406 7.3125 -17.734375 C 7.3125 -31.222656 8.671875 -44.550781 11.390625 -57.71875 C 13.535156 -68.0625 16.515625 -74.976562 20.328125 -78.46875 C 23.929688 -81.71875 28.6875 -83.34375 34.59375 -83.34375 C 40.507812 -83.34375 44.992188 -81.554688 48.046875 -77.984375 C 51.097656 -74.421875 52.625 -70.035156 52.625 -64.828125 C 52.625 -59.628906 52.289062 -53.332031 51.625 -45.9375 C 50.957031 -38.539062 50.128906 -32.363281 49.140625 -27.40625 C 48.148438 -22.445312 47.3125 -18.828125 46.625 -16.546875 C 45.9375 -14.265625 44.988281 -11.957031 43.78125 -9.625 C 42.582031 -7.300781 41.191406 -5.4375 39.609375 -4.03125 C 36.035156 -0.8125 31.273438 0.796875 25.328125 0.796875 Z M 26.6875 -11.703125 C 31.164062 -11.703125 34.039062 -15.832031 35.3125 -24.09375 C 36.164062 -29.5625 37.015625 -36.375 37.859375 -44.53125 C 38.703125 -52.6875 39.125 -58.421875 39.125 -61.734375 C 39.125 -65.054688 38.585938 -67.40625 37.515625 -68.78125 C 36.441406 -70.15625 34.914062 -70.84375 32.9375 -70.84375 C 28.84375 -70.84375 26.070312 -66.695312 24.625 -58.40625 C 23.769531 -53.53125 22.921875 -46.914062 22.078125 -38.5625 C 21.234375 -30.21875 20.8125 -24.332031 20.8125 -20.90625 C 20.8125 -17.488281 21.363281 -15.097656 22.46875 -13.734375 C 23.582031 -12.378906 24.988281 -11.703125 26.6875 -11.703125 Z M 26.6875 -11.703125 "/></g></g></g><g clip-path="url(#388f878a92)"><path fill="#010101" d="M 258.066406 45.042969 C 258.066406 42.992188 258.140625 41.136719 258.617188 39.039062 C 259.191406 36.578125 261.949219 34.914062 264.296875 36.117188 C 266.121094 37.058594 266.457031 39.132812 265.929688 40.96875 C 265.640625 41.980469 265.378906 42.800781 265.640625 43.644531 C 269.355469 44.007812 274.148438 46.058594 276.066406 48.878906 C 276.761719 49.894531 277.167969 51.171875 276.929688 52.402344 C 276.839844 52.882812 276.675781 53.277344 276.460938 53.601562 C 278.082031 55.695312 279.769531 57.773438 281.582031 59.6875 C 283.164062 61.378906 284.84375 62.898438 286.832031 64.128906 C 287.765625 64.730469 288.773438 65.238281 289.777344 65.71875 C 292.628906 67.023438 295.699219 68.085938 298.621094 69.144531 C 306.222656 71.921875 314.128906 76.382812 318.804688 83.210938 C 322.230469 88.25 323.644531 94.328125 321.777344 100.238281 C 319.523438 107.453125 313.265625 112.179688 306.171875 114.011719 C 296.535156 116.472656 286.230469 113.675781 277.675781 109.070312 C 261.273438 100.253906 255.628906 81.375 253.261719 63.9375 C 251.46875 63.207031 251.082031 60.867188 250.949219 59.105469 C 250.589844 53.558594 253.417969 48.007812 258.066406 45.042969 Z M 274.433594 50.957031 C 274.34375 50.707031 274.226562 50.472656 274.078125 50.253906 C 272.355469 47.742188 267.105469 45.910156 264.15625 46.03125 C 262.742188 44.101562 262.957031 42.460938 263.582031 40.289062 C 264.421875 37.464844 261.425781 37.707031 260.992188 39.589844 C 260.464844 41.953125 260.464844 43.738281 260.511719 46.464844 C 255.910156 48.734375 253.058594 53.871094 253.394531 58.9375 C 253.398438 58.976562 253.398438 59.015625 253.402344 59.054688 C 253.582031 61.484375 254.3125 63.09375 255.660156 59.964844 C 255.695312 59.882812 255.730469 59.800781 255.769531 59.710938 C 255.9375 59.300781 256.101562 58.816406 256.367188 58.164062 C 259.386719 64.824219 263.292969 63.496094 262.621094 55.390625 C 267.441406 58.839844 271.226562 61.832031 269.1875 53.125 C 269.863281 53.050781 270.53125 52.980469 271.203125 52.882812 C 271.285156 52.871094 271.371094 52.863281 271.449219 52.855469 C 273.3125 52.644531 274.398438 52.683594 274.558594 51.941406 C 274.589844 51.71875 274.582031 51.375 274.433594 50.957031 Z M 278.824219 106.921875 C 316.429688 127.160156 339.824219 86.777344 297.785156 71.457031 C 294.019531 70.082031 291.167969 69.046875 288.773438 67.9375 C 283.59375 65.542969 280.445312 62.699219 274.382812 54.914062 C 273.644531 55.105469 272.832031 55.171875 272.066406 55.246094 C 272.351562 57.441406 272.210938 59.804688 270.265625 60.867188 C 268.613281 61.761719 266.792969 61.035156 265.304688 60.167969 C 265.160156 60.101562 265.027344 60.019531 264.898438 59.925781 C 264.492188 62.195312 263.460938 64.246094 261.207031 64.777344 C 259.386719 65.1875 257.851562 64.339844 256.628906 63.0625 C 256.363281 63.363281 256.050781 63.613281 255.699219 63.808594 C 258.042969 80.957031 263.539062 98.683594 278.824219 106.921875 Z M 278.824219 106.921875 " fill-opacity="1" fill-rule="evenodd"/></g><path fill="#010101" d="M 303.847656 77.777344 C 312.859375 83.304688 321.226562 90.855469 315.542969 101.035156 C 313.890625 103.976562 314.035156 101.902344 314.488281 99.707031 C 316.359375 90.660156 311.542969 84.605469 302.960938 80.117188 C 297.449219 76.5 301.234375 76.1875 303.847656 77.777344 Z M 303.847656 77.777344 " fill-opacity="1" fill-rule="evenodd"/><path fill="#010101" d="M 296.800781 73.894531 C 298.332031 74.546875 299.269531 75.824219 298.886719 76.742188 C 298.476562 77.683594 296.945312 77.898438 295.410156 77.25 C 293.875 76.597656 292.941406 75.320312 293.324219 74.402344 C 293.707031 73.460938 295.265625 73.242188 296.800781 73.894531 Z M 296.800781 73.894531 " fill-opacity="1" fill-rule="evenodd"/><path fill="#010101" d="M 263.269531 73.773438 C 264.777344 82.773438 267.847656 90.324219 274.511719 98.042969 C 276.957031 100.890625 276.59375 101.445312 273.527344 98.789062 C 265.210938 91.625 263.484375 85.546875 260.035156 73.847656 C 258.1875 67.574219 262.359375 68.539062 263.269531 73.773438 Z M 263.269531 73.773438 " fill-opacity="1" fill-rule="evenodd"/><path fill="#010101" d="M 270.773438 50.832031 C 270.65625 50.71875 270.546875 50.613281 270.441406 50.511719 C 269.335938 49.472656 268.484375 49.0625 267.417969 48.492188 C 265.597656 47.480469 267.058594 47.433594 268.207031 47.675781 C 269.738281 48.011719 270.773438 48.589844 272.066406 49.96875 C 272.171875 50.074219 272.265625 50.191406 272.355469 50.316406 C 273.242188 51.550781 271.914062 51.984375 270.773438 50.832031 Z M 270.773438 50.832031 " fill-opacity="1" fill-rule="evenodd"/><g clip-path="url(#5f99082075)"><path fill="#010101" d="M 132.761719 95.53125 C 132.570312 90.027344 130.234375 85.121094 126.351562 81.246094 C 124.148438 79.050781 121.570312 77.277344 118.792969 75.851562 C 119.492188 75.058594 119.917969 74.0625 119.765625 72.957031 C 119.292969 69.789062 115.003906 69.359375 112.496094 69.402344 C 110.007812 69.425781 107.96875 69.832031 105.929688 70.496094 C 106.316406 69.722656 106.703125 68.953125 107.113281 68.140625 C 107.753906 66.855469 107.777344 65.375 107.046875 64.113281 C 106.253906 62.699219 104.667969 61.863281 103.078125 61.820312 C 101.167969 61.777344 99.582031 62.847656 98.8125 64.5625 C 97.84375 66.726562 97.351562 68.886719 96.878906 71.117188 C 93.320312 69.574219 90.917969 69.488281 86.265625 69.253906 C 84.460938 69.167969 82.296875 69.851562 81.757812 71.78125 C 81.46875 72.8125 81.738281 73.707031 82.285156 74.449219 C 82.042969 74.574219 81.804688 74.703125 81.566406 74.84375 C 78.113281 76.832031 75.882812 79.9375 74.230469 83.492188 C 70.433594 91.71875 69.832031 100.734375 74.875 108.59375 C 79.894531 116.410156 89.097656 120.925781 98.125 122.039062 C 104.515625 122.832031 111.230469 121.996094 117 119.085938 C 125.898438 114.609375 133.085938 105.875 132.761719 95.53125 Z M 86.152344 71.4375 C 89.144531 71.582031 91.074219 71.625 93.058594 72.09375 C 94.574219 72.457031 96.125 73.066406 98.210938 74.164062 C 98.285156 74.203125 98.363281 74.242188 98.441406 74.285156 C 98.453125 74.242188 98.460938 74.203125 98.46875 74.160156 C 98.640625 73.375 98.789062 72.644531 98.929688 71.957031 C 99.425781 69.539062 99.828125 67.621094 100.800781 65.464844 C 102.089844 62.574219 106.527344 64.4375 105.15625 67.179688 C 104.238281 69.011719 103.585938 70.484375 103.039062 71.96875 C 102.773438 72.683594 102.535156 73.398438 102.296875 74.160156 C 102.0625 74.921875 101.835938 75.71875 101.59375 76.601562 C 101.507812 76.964844 101.402344 77.328125 101.316406 77.695312 C 100.953125 79.042969 102.347656 79.191406 102.6875 77.949219 C 102.796875 77.5625 102.902344 77.199219 103.007812 76.816406 C 103.320312 75.714844 103.742188 74.84375 104.261719 74.160156 C 105.140625 72.992188 106.308594 72.355469 107.707031 72.007812 C 109.09375 71.660156 110.710938 71.59375 112.511719 71.566406 C 117.371094 71.503906 118.753906 73.242188 116.671875 74.855469 C 116.085938 75.3125 115.222656 75.757812 114.082031 76.148438 C 114.039062 76.164062 113.992188 76.179688 113.949219 76.195312 C 112.488281 76.683594 111.117188 77.242188 109.507812 77.886719 C 122.226562 80.710938 121.90625 90.308594 107.082031 83.429688 C 106.332031 87.863281 107.769531 94.503906 101.699219 90.433594 C 99.574219 89 98.695312 87.757812 96.875 84.117188 C 92.949219 85.316406 92.519531 85.335938 88.421875 85.230469 C 83.230469 84.136719 82.03125 83.109375 87.136719 80.925781 C 88.679688 80.261719 90.160156 79.425781 90.847656 77.882812 C 89.472656 76.789062 88.257812 75.871094 86.914062 75.066406 C 86.496094 74.816406 86.0625 74.578125 85.613281 74.351562 C 85.066406 74.082031 84.660156 73.8125 84.375 73.558594 C 83.011719 72.332031 84.363281 71.351562 86.152344 71.4375 Z M 116.03125 117.136719 C 96.363281 127.03125 63.609375 111.65625 76.222656 84.394531 C 78.28125 79.9375 80.808594 77.417969 84.089844 75.996094 C 84.273438 76.105469 84.464844 76.207031 84.652344 76.300781 C 85.746094 76.855469 86.730469 77.5 87.71875 78.207031 C 87.246094 78.503906 86.730469 78.742188 86.28125 78.933594 C 84.414062 79.726562 81.414062 81.054688 81.710938 83.558594 C 82.011719 86.214844 85.851562 86.921875 87.976562 87.347656 L 88.167969 87.394531 L 88.359375 87.394531 C 89.882812 87.4375 91.492188 87.519531 92.992188 87.328125 C 93.9375 87.199219 94.859375 86.984375 95.761719 86.730469 C 96.941406 88.957031 98.121094 90.667969 100.480469 92.234375 C 102.257812 93.453125 104.703125 94.632812 106.765625 93.28125 C 108.78125 91.933594 108.886719 88.914062 108.996094 86.601562 C 110.988281 87.347656 113.113281 87.929688 115.109375 88.011719 C 117.230469 88.117188 119.71875 87.5625 120.578125 85.359375 C 121.476562 83.066406 119.910156 80.816406 118.195312 79.40625 C 117.488281 78.804688 116.671875 78.292969 115.816406 77.820312 C 116.171875 77.675781 116.519531 77.511719 116.859375 77.328125 C 137.101562 86.941406 133.351562 108.425781 116.03125 117.136719 Z M 116.03125 117.136719 " fill-opacity="1" fill-rule="evenodd"/></g><path fill="#010101" d="M 126.105469 88.753906 C 125.347656 88.71875 124.660156 89.785156 124.59375 91.144531 C 124.527344 92.507812 125.09375 93.640625 125.871094 93.683594 C 126.648438 93.722656 127.316406 92.652344 127.382812 91.292969 C 127.449219 89.929688 126.882812 88.796875 126.105469 88.753906 Z M 126.105469 88.753906 " fill-opacity="1" fill-rule="evenodd"/><path fill="#010101" d="M 124.125 97.402344 C 123.171875 104.566406 120.535156 108.835938 114.382812 112.511719 C 112.699219 113.519531 113.402344 114.175781 114.59375 113.777344 C 122.066406 111.183594 124.863281 105.089844 126.832031 97.75 C 127.675781 94.640625 124.550781 94.082031 124.125 97.402344 Z M 124.125 97.402344 " fill-opacity="1" fill-rule="evenodd"/><path fill="#010101" d="M 78.445312 90.21875 C 78.726562 88.851562 76.988281 88.335938 76.667969 89.855469 C 75.59375 95.273438 76.089844 100.070312 78.445312 105.058594 C 79.113281 106.472656 80.679688 105.550781 80.097656 104.289062 C 77.886719 99.664062 77.460938 95.230469 78.445312 90.21875 Z M 78.445312 90.21875 " fill-opacity="1" fill-rule="evenodd"/><path fill="#010101" d="M 88.339844 73.773438 C 89.863281 73.894531 91.164062 74.171875 92.417969 74.601562 C 93.640625 75.015625 94.824219 75.574219 96.125 76.257812 C 96.984375 76.710938 97.757812 75.339844 96.640625 74.84375 C 96.351562 74.714844 96.070312 74.589844 95.796875 74.46875 C 93.601562 73.511719 91.851562 72.925781 89.511719 72.679688 C 89.183594 72.644531 88.84375 72.617188 88.488281 72.597656 C 88.195312 72.578125 87.746094 72.753906 87.617188 72.976562 C 87.605469 73 87.597656 73.023438 87.589844 73.046875 C 87.503906 73.367188 87.933594 73.753906 88.339844 73.773438 Z M 88.339844 73.773438 " fill-opacity="1" fill-rule="evenodd"/><g clip-path="url(#e9725c0f83)"><path fill="#010101" d="M 288.738281 295.6875 C 287.921875 291.09375 284.269531 287.433594 279.566406 286.632812 C 279.351562 286.59375 279.136719 286.574219 278.902344 286.535156 C 277.144531 283.347656 274.019531 281.097656 270.351562 280.472656 C 269.234375 280.289062 268.113281 280.261719 266.988281 280.390625 C 265.863281 280.519531 264.777344 280.804688 263.730469 281.238281 C 262.683594 281.675781 261.71875 282.246094 260.832031 282.953125 C 259.949219 283.660156 259.175781 284.476562 258.519531 285.402344 C 253.054688 284.71875 247.960938 288.472656 247.042969 293.988281 C 246.839844 295.164062 246.847656 296.335938 247.0625 297.507812 C 245.757812 298.417969 244.679688 299.546875 243.828125 300.894531 C 242.980469 302.242188 242.421875 303.703125 242.160156 305.273438 C 241.085938 311.75 245.441406 317.867188 251.902344 318.964844 C 253.40625 319.21875 254.898438 319.183594 256.390625 318.859375 L 256.472656 319.199219 L 256.511719 319.355469 L 256.566406 319.492188 C 257.386719 321.429688 258.207031 323.460938 258.597656 325.535156 C 258.96875 327.609375 258.988281 329.9375 259.046875 332.066406 C 258.890625 337.621094 266.738281 339.714844 270.660156 336.566406 C 271.871094 335.589844 272.59375 334.21875 272.789062 332.695312 C 273.351562 328.476562 275.042969 324.226562 276.898438 320.316406 C 277.746094 320.355469 278.589844 320.292969 279.425781 320.136719 C 280.257812 319.980469 281.066406 319.734375 281.84375 319.394531 C 282.621094 319.054688 283.351562 318.632812 284.035156 318.128906 C 284.71875 317.625 285.335938 317.046875 285.886719 316.402344 C 290.222656 315.347656 293.558594 311.804688 294.300781 307.347656 C 294.492188 306.207031 294.507812 305.0625 294.34375 303.917969 C 294.183594 302.777344 293.851562 301.683594 293.355469 300.640625 C 292.859375 299.597656 292.214844 298.652344 291.429688 297.808594 C 290.640625 296.964844 289.746094 296.257812 288.738281 295.6875 Z M 292.351562 307.011719 C 292.199219 307.910156 291.921875 308.765625 291.519531 309.582031 C 291.117188 310.398438 290.605469 311.136719 289.984375 311.800781 C 289.363281 312.464844 288.660156 313.027344 287.875 313.480469 C 287.089844 313.9375 286.253906 314.273438 285.371094 314.484375 C 285.890625 313.976562 286.257812 313.375 286.480469 312.683594 C 286.699219 311.992188 286.742188 311.289062 286.613281 310.574219 C 286.417969 309.535156 284.953125 309.574219 285.050781 310.789062 C 285.070312 311.082031 285.148438 311.433594 285.109375 311.707031 C 284.914062 313.253906 283.507812 314.347656 281.984375 314.152344 C 281.675781 314.109375 281.375 314.027344 281.089844 313.898438 C 279.761719 313.234375 279.019531 314.425781 279.976562 315.03125 C 280.527344 315.402344 281.132812 315.625 281.792969 315.695312 C 282.652344 315.804688 283.46875 315.664062 284.246094 315.28125 C 283.722656 315.859375 283.140625 316.363281 282.496094 316.796875 C 281.847656 317.226562 281.160156 317.570312 280.425781 317.828125 C 279.695312 318.082031 278.941406 318.246094 278.167969 318.3125 C 277.394531 318.378906 276.625 318.347656 275.859375 318.21875 L 275.726562 318.195312 C 274.417969 317.957031 273.222656 317.460938 272.132812 316.699219 C 271.210938 316.058594 270.429688 315.273438 269.792969 314.347656 L 269.125 315.460938 C 268.976562 315.699219 268.832031 315.933594 268.683594 316.171875 C 269.46875 317.140625 270.386719 317.957031 271.441406 318.621094 C 272.496094 319.28125 273.628906 319.753906 274.84375 320.039062 C 273.019531 323.949219 271.390625 328.191406 270.839844 332.417969 C 270.117188 337.894531 260.824219 336.703125 261.039062 332.066406 C 260.84375 325.847656 260.824219 324.457031 258.402344 318.726562 C 258.363281 318.578125 258.324219 318.425781 258.285156 318.273438 C 260.03125 317.570312 261.527344 316.511719 262.769531 315.097656 C 263.222656 314.582031 263.625 314.03125 263.980469 313.449219 C 263.644531 313.046875 263.304688 312.652344 262.972656 312.253906 L 262.734375 311.964844 C 263.722656 311.621094 264.484375 311 265.019531 310.105469 C 265.371094 309.539062 265.566406 308.890625 265.644531 308.265625 C 265.742188 307.152344 264.359375 306.996094 264.046875 308.441406 C 263.984375 308.75 263.867188 309.039062 263.695312 309.300781 C 263.503906 309.621094 263.257812 309.890625 262.960938 310.113281 C 262.660156 310.335938 262.332031 310.492188 261.96875 310.582031 C 261.609375 310.671875 261.246094 310.6875 260.878906 310.632812 C 260.511719 310.578125 260.167969 310.453125 259.847656 310.261719 C 259.59375 310.105469 259.378906 309.847656 259.164062 309.632812 C 258.269531 308.792969 257.332031 309.949219 258.03125 310.730469 C 258.304688 311.0625 258.65625 311.335938 259.046875 311.570312 C 259.566406 311.886719 260.125 312.085938 260.722656 312.167969 C 261.324219 312.25 261.914062 312.207031 262.496094 312.042969 C 262.203125 312.578125 261.859375 313.082031 261.46875 313.550781 C 260.757812 314.414062 259.925781 315.132812 258.972656 315.710938 C 258.019531 316.289062 256.996094 316.695312 255.90625 316.929688 C 254.6875 317.1875 253.464844 317.214844 252.234375 317.003906 C 246.847656 316.105469 243.214844 311 244.113281 305.605469 C 244.601562 302.734375 246.261719 300.363281 248.523438 298.917969 C 248.363281 299.496094 248.324219 300.082031 248.40625 300.675781 C 248.5625 301.710938 250.046875 301.75 249.988281 300.539062 C 249.96875 300.226562 249.910156 299.894531 249.96875 299.597656 C 250.03125 299.234375 250.160156 298.890625 250.355469 298.574219 C 250.554688 298.261719 250.800781 297.992188 251.105469 297.777344 C 251.40625 297.5625 251.738281 297.410156 252.097656 297.328125 C 252.460938 297.242188 252.824219 297.230469 253.191406 297.292969 C 253.503906 297.351562 253.816406 297.449219 254.070312 297.605469 C 255.378906 298.308594 256.15625 297.15625 255.242188 296.507812 C 254.699219 296.125 254.097656 295.878906 253.445312 295.765625 C 251.710938 295.476562 250.039062 296.265625 249.109375 297.644531 C 248.847656 296.539062 248.808594 295.421875 248.992188 294.300781 C 249.753906 289.742188 254.070312 286.671875 258.636719 287.433594 C 258.925781 287.472656 259.214844 287.53125 259.496094 287.609375 C 259.933594 286.792969 260.472656 286.046875 261.113281 285.378906 C 261.757812 284.710938 262.476562 284.140625 263.277344 283.671875 C 264.074219 283.203125 264.921875 282.851562 265.816406 282.617188 C 266.714844 282.382812 267.625 282.273438 268.550781 282.292969 C 269.476562 282.308594 270.382812 282.453125 271.269531 282.722656 C 272.15625 282.992188 272.988281 283.375 273.769531 283.875 C 274.550781 284.375 275.25 284.96875 275.863281 285.660156 C 276.480469 286.355469 276.992188 287.117188 277.394531 287.953125 C 276.398438 287.332031 275.324219 287.148438 274.175781 287.398438 C 273.742188 287.488281 273.332031 287.644531 272.949219 287.867188 C 272.03125 288.394531 272.554688 289.78125 273.652344 289.277344 C 273.945312 289.160156 274.238281 288.984375 274.511719 288.921875 C 274.875 288.84375 275.238281 288.835938 275.605469 288.902344 C 275.972656 288.96875 276.3125 289.101562 276.625 289.304688 C 276.941406 289.503906 277.203125 289.761719 277.414062 290.066406 C 277.625 290.375 277.769531 290.710938 277.847656 291.074219 C 277.910156 291.386719 277.921875 291.699219 277.886719 292.015625 C 277.710938 293.480469 279.078125 293.792969 279.351562 292.679688 C 279.496094 292.035156 279.503906 291.390625 279.371094 290.742188 C 279.179688 289.855469 278.753906 289.101562 278.089844 288.484375 C 278.480469 288.5 278.867188 288.535156 279.253906 288.589844 C 283.507812 289.316406 286.59375 292.875 286.925781 297 C 290.710938 298.640625 293.054688 302.730469 292.351562 307.011719 Z M 292.351562 307.011719 " fill-opacity="1" fill-rule="nonzero"/></g><path fill="#010101" d="M 266.289062 289.941406 C 264.300781 288.609375 261.585938 289.136719 260.257812 291.152344 C 260.003906 291.519531 259.816406 291.917969 259.691406 292.34375 C 259.398438 293.359375 260.726562 294.003906 261.175781 292.871094 C 261.292969 292.578125 261.371094 292.246094 261.546875 292.011719 C 261.753906 291.703125 262.007812 291.441406 262.316406 291.234375 C 262.625 291.027344 262.960938 290.886719 263.328125 290.8125 C 263.691406 290.738281 264.054688 290.738281 264.421875 290.8125 C 264.785156 290.882812 265.121094 291.023438 265.429688 291.230469 C 265.6875 291.414062 265.914062 291.628906 266.117188 291.875 C 267.011719 293.046875 268.203125 292.324219 267.621094 291.367188 C 267.285156 290.789062 266.839844 290.3125 266.289062 289.941406 Z M 266.289062 289.941406 " fill-opacity="1" fill-rule="nonzero"/><path fill="#010101" d="M 276.441406 299.914062 C 276.011719 298.953125 274.566406 299.328125 274.976562 300.480469 C 275.074219 300.773438 275.210938 301.085938 275.25 301.378906 C 275.292969 301.75 275.261719 302.117188 275.160156 302.472656 C 275.058594 302.832031 274.894531 303.160156 274.664062 303.453125 C 274.433594 303.746094 274.15625 303.984375 273.832031 304.167969 C 273.507812 304.347656 273.160156 304.464844 272.792969 304.507812 C 272.480469 304.527344 272.167969 304.527344 271.855469 304.449219 C 270.429688 304.136719 269.980469 305.46875 271.054688 305.839844 C 271.675781 306.042969 272.316406 306.109375 272.964844 306.035156 C 275.367188 305.761719 277.066406 303.589844 276.792969 301.183594 C 276.738281 300.742188 276.621094 300.320312 276.441406 299.914062 Z M 276.441406 299.914062 " fill-opacity="1" fill-rule="nonzero"/><path fill="#010101" d="M 263.011719 319.511719 C 262.386719 317.90625 260.609375 318.824219 261.175781 320.253906 C 261.917969 322.089844 263.695312 321.210938 263.011719 319.511719 Z M 263.011719 319.511719 " fill-opacity="1" fill-rule="nonzero"/><path fill="#010101" d="M 265.15625 326.21875 C 264.921875 325.105469 264.609375 324.007812 264.257812 322.914062 C 263.734375 321.25 261.878906 321.996094 262.367188 323.480469 C 262.699219 324.519531 262.992188 325.574219 263.226562 326.648438 C 263.714844 328.839844 263.96875 331.109375 264.183594 333.335938 C 264.339844 335.039062 266.289062 334.667969 266.152344 333.140625 C 265.917969 330.835938 265.664062 328.507812 265.15625 326.21875 Z M 265.15625 326.21875 " fill-opacity="1" fill-rule="nonzero"/><g clip-path="url(#5b5696a4d5)"><g clip-path="url(#537c8a5f73)"><g clip-path="url(#474193a1c0)"><g clip-path="url(#fe6eb01efb)"><path fill="#010101" d="M 359.011719 210.9375 C 357.632812 209.675781 355.351562 208.433594 353.507812 209.449219 C 353.230469 209.589844 352.992188 209.773438 352.789062 210.003906 C 352.21875 210.601562 351.671875 211.210938 351.105469 211.824219 C 351.144531 211.746094 351.183594 211.667969 351.222656 211.589844 C 351.515625 211.042969 351.621094 210.421875 351.496094 209.824219 C 351.125 208.03125 349.070312 207.261719 347.566406 206.699219 C 347.320312 206.597656 347.070312 206.5 346.824219 206.40625 C 345.546875 205.921875 344.15625 205.179688 342.777344 205.8125 C 341.726562 206.300781 341.285156 207.316406 341.136719 208.386719 C 340.367188 207.25 338.660156 206.71875 337.332031 206.566406 C 335.71875 206.375 333.3125 206.519531 332.601562 208.308594 C 332.476562 208.621094 332.425781 208.941406 332.453125 209.277344 C 332.566406 211.824219 332.679688 214.371094 332.617188 216.914062 C 332.585938 218.316406 332.496094 219.714844 332.359375 221.109375 C 331.765625 221.167969 331.175781 221.273438 330.59375 221.417969 C 327.648438 222.136719 325.1875 223.867188 323.484375 226.382812 C 321.289062 229.625 319.242188 233 317.3125 236.421875 C 315.070312 240.398438 312.988281 244.484375 311.121094 248.660156 C 309.46875 252.355469 307.925781 256.171875 306.714844 260.050781 C 305.546875 263.78125 302.9375 272.691406 306.945312 275.558594 C 310.21875 277.898438 315.242188 274.582031 317.882812 272.660156 C 320.78125 270.570312 323.519531 268.097656 326.082031 265.625 C 329.847656 262.015625 333.425781 258.175781 336.910156 254.296875 C 339.710938 251.179688 342.113281 247.796875 344.464844 244.332031 C 346.699219 241.03125 348.25 237.144531 347.847656 233.089844 C 347.6875 231.386719 347.199219 229.78125 346.382812 228.28125 C 350.683594 224.59375 355.066406 221.109375 359.648438 217.726562 C 360.308594 217.257812 360.777344 216.589844 360.972656 215.792969 C 361.429688 213.960938 360.289062 212.144531 359.011719 210.9375 Z M 342.894531 208.679688 C 343.128906 206.601562 344.441406 207.394531 346.175781 208.058594 C 348.042969 208.773438 350.316406 209.484375 349.65625 210.769531 C 347.371094 215.242188 344.660156 219.355469 341.742188 223.378906 C 341.476562 223.207031 341.203125 223.046875 340.925781 222.890625 C 342.507812 220.308594 344.035156 217.6875 345.574219 215.074219 C 346.25 213.890625 344.804688 212.855469 344.03125 214.179688 C 342.480469 216.839844 340.933594 219.5 339.316406 222.121094 C 338.898438 221.953125 338.476562 221.804688 338.046875 221.671875 C 340.375 217.609375 342.363281 213.316406 342.894531 208.675781 Z M 334.210938 209.191406 C 334.148438 207.628906 339.949219 208.191406 339.761719 209.835938 C 339.296875 214.070312 338.59375 217.734375 337.136719 221.425781 C 336.933594 221.378906 336.730469 221.335938 336.527344 221.296875 C 336.996094 219.289062 337.4375 217.269531 337.878906 215.253906 C 338.175781 213.925781 336.484375 213.394531 336.164062 214.882812 C 335.699219 216.9375 335.246094 219.003906 334.761719 221.066406 C 334.558594 221.050781 334.355469 221.039062 334.152344 221.035156 C 334.523438 217.027344 334.4375 213.933594 334.210938 209.191406 Z M 342.992188 243.355469 C 341.082031 246.15625 339.175781 248.890625 336.972656 251.527344 C 334.285156 250.46875 331.652344 249.308594 329.1875 247.808594 C 327.117188 246.546875 326.648438 247.515625 328.132812 249.179688 C 330.050781 251.34375 331.972656 252.820312 334.328125 254.519531 C 307.300781 284.253906 303.21875 276.53125 308.660156 259.796875 C 310.960938 260.816406 312.890625 261.597656 315.351562 262.09375 C 317.230469 262.46875 317.75 261.703125 315.90625 260.71875 C 313.722656 259.546875 311.734375 258.089844 309.789062 256.558594 C 312.496094 249.25 316.671875 240.71875 321.382812 232.941406 C 324.34375 234.359375 326.707031 235.457031 329.800781 236.167969 C 331.984375 236.664062 332.609375 235.777344 330.480469 234.578125 C 328 233.152344 325.722656 231.398438 323.5 229.558594 C 323.980469 228.816406 324.464844 228.082031 324.953125 227.355469 C 326.75 224.703125 329.371094 223.289062 332.164062 222.90625 C 332.761719 222.824219 333.363281 222.789062 333.96875 222.800781 C 334.09375 222.800781 334.21875 222.804688 334.34375 222.8125 C 334.34375 222.816406 334.34375 222.816406 334.34375 222.820312 C 334.789062 222.835938 335.234375 222.878906 335.675781 222.945312 C 335.71875 222.953125 335.757812 222.960938 335.800781 222.964844 C 336.011719 223 336.222656 223.039062 336.429688 223.085938 C 336.660156 223.132812 336.890625 223.191406 337.117188 223.253906 C 337.707031 223.414062 338.285156 223.613281 338.847656 223.851562 C 338.925781 223.886719 339.007812 223.921875 339.085938 223.957031 C 339.125 223.976562 339.164062 223.992188 339.203125 224.011719 C 339.265625 224.039062 339.324219 224.066406 339.382812 224.09375 C 339.449219 224.128906 339.515625 224.160156 339.585938 224.195312 C 339.71875 224.261719 339.851562 224.332031 339.984375 224.40625 L 339.988281 224.402344 C 340.226562 224.53125 340.460938 224.671875 340.691406 224.8125 C 340.96875 224.988281 341.242188 225.171875 341.503906 225.371094 C 342.488281 226.09375 343.339844 226.949219 344.0625 227.933594 C 344.417969 228.421875 344.730469 228.933594 345 229.476562 C 346.800781 233.0625 346.703125 237.875 342.992188 243.355469 Z M 358.597656 216.304688 C 353.78125 219.851562 349.730469 223.050781 345.410156 226.765625 C 345.25 226.550781 345.082031 226.335938 344.910156 226.132812 C 348.300781 222.597656 351.921875 219.304688 355.539062 215.996094 C 356.671875 214.964844 355.339844 213.765625 354.332031 214.6875 C 350.699219 218.003906 347.085938 221.316406 343.679688 224.851562 C 343.640625 224.816406 343.601562 224.78125 343.5625 224.746094 C 343.273438 224.492188 342.972656 224.25 342.660156 224.015625 C 346.378906 219.679688 350.105469 215.496094 354.085938 211.207031 C 355.679688 209.488281 361.25 214.34375 358.597656 216.304688 Z M 358.597656 216.304688 " fill-opacity="1" fill-rule="evenodd"/></g></g></g></g><g clip-path="url(#056bd39cef)"><g clip-path="url(#569bab047d)"><g clip-path="url(#b90838d7f2)"><g clip-path="url(#60cbcb86a5)"><path fill="#010101" d="M 335.890625 237.054688 C 334.6875 236.382812 333.515625 236.183594 333.257812 236.636719 C 333.019531 237.082031 333.78125 237.976562 334.988281 238.667969 C 336.191406 239.339844 337.375 239.515625 337.617188 239.066406 C 337.875 238.632812 337.09375 237.726562 335.890625 237.054688 Z M 335.890625 237.054688 " fill-opacity="1" fill-rule="evenodd"/></g></g></g></g><g clip-path="url(#a476d03f67)"><g clip-path="url(#887fa27f13)"><g clip-path="url(#d331d75cd4)"><g clip-path="url(#185c7d0e02)"><path fill="#010101" d="M 101.039062 282.347656 C 103.371094 281.445312 105.488281 282.917969 106.332031 285.089844 C 106.753906 286.1875 107.140625 287.316406 107.417969 288.460938 C 107.675781 289.492188 107.859375 290.558594 108 291.636719 C 111.320312 291.710938 113.355469 292.472656 116.03125 295.265625 C 117.324219 296.625 117.320312 298.125 116.445312 299.140625 C 117.335938 300.515625 117.953125 302.082031 118.257812 303.78125 C 119 307.96875 119.652344 312.203125 120.535156 316.375 C 121.15625 319.359375 121.921875 322.351562 123.175781 325.160156 C 125.0625 329.410156 127.910156 332.859375 131.140625 336.144531 C 133.246094 338.277344 135.351562 340.828125 136.789062 343.480469 C 137.351562 344.535156 137.875 345.730469 138.09375 346.925781 C 138.316406 348.164062 138.203125 349.433594 137.453125 350.46875 C 134.746094 354.164062 127.355469 350.582031 124.367188 349.101562 C 107.894531 340.992188 95.757812 326.101562 94.023438 307.46875 C 93.9375 306.523438 93.925781 305.578125 93.988281 304.628906 C 93.882812 304.539062 93.785156 304.441406 93.695312 304.339844 C 92.804688 303.300781 92.855469 301.957031 93.328125 300.742188 C 93.996094 299.027344 94.695312 297.253906 95.875 295.832031 C 97.179688 294.21875 98.953125 293.25 100.839844 292.496094 C 100.335938 290.996094 99.800781 289.578125 99.046875 288.085938 C 97.9375 285.9375 98.683594 283.242188 101.039062 282.347656 Z M 96.03125 307.289062 C 97.699219 325.324219 109.5 339.542969 125.253906 347.300781 C 140.65625 354.890625 137.488281 345.460938 129.707031 337.550781 C 119.566406 327.28125 119.320312 321.292969 116.261719 304.132812 C 115.996094 302.628906 115.453125 301.308594 114.710938 300.179688 C 114.5 300.238281 114.28125 300.28125 114.0625 300.3125 C 113.210938 300.414062 112.496094 300.425781 111.78125 300.359375 C 111.808594 301.820312 111.480469 303.171875 110.628906 304.707031 C 110.011719 305.78125 109.230469 306.761719 107.957031 307.066406 C 106.714844 307.351562 105.617188 306.828125 104.566406 306.242188 C 102.964844 305.371094 102.039062 304.472656 101.359375 303.28125 C 100.300781 304.238281 99.148438 304.960938 97.507812 305.269531 C 97.003906 305.367188 96.476562 305.417969 95.960938 305.378906 C 95.949219 306.019531 95.972656 306.652344 96.03125 307.289062 Z M 100.832031 287.1875 C 101.929688 289.335938 102.429688 290.847656 103.285156 293.574219 C 103.300781 293.628906 103.320312 293.6875 103.339844 293.746094 C 97.71875 295.554688 96.859375 297.230469 95.195312 301.46875 C 94.695312 302.773438 95.1875 303.324219 96.140625 303.382812 C 96.476562 303.394531 96.804688 303.367188 97.132812 303.304688 C 99.082031 302.9375 99.90625 301.949219 102.03125 299.738281 C 103.023438 302.667969 103.691406 303.476562 105.535156 304.480469 C 107.21875 305.410156 107.859375 305.488281 108.867188 303.714844 C 109.890625 301.925781 110 300.53125 109.464844 297.863281 C 111.207031 298.320312 112.09375 298.457031 113.199219 298.375 C 113.394531 298.359375 113.597656 298.339844 113.8125 298.3125 C 114.613281 298.207031 115.160156 297.886719 115.007812 297.324219 C 113.941406 296.21875 112.714844 295.335938 111.328125 294.679688 C 110.382812 294.226562 109.394531 293.886719 108.367188 293.664062 C 107.730469 293.632812 107.019531 293.636719 106.210938 293.660156 L 106.179688 293.378906 C 105.773438 289.871094 105.53125 288.648438 104.453125 285.8125 C 103.175781 282.527344 99.46875 284.496094 100.832031 287.1875 Z M 100.832031 287.1875 " fill-opacity="1" fill-rule="evenodd"/></g></g></g></g><g clip-path="url(#aeb7f9fe38)"><g clip-path="url(#430db9e594)"><g clip-path="url(#af84afa9cd)"><g clip-path="url(#09660981f5)"><path fill="#010101" d="M 116.296875 312.363281 C 117.078125 319.433594 118.417969 323.34375 121.226562 328.546875 C 121.910156 329.835938 120.949219 330.632812 119.761719 329.148438 C 115.957031 324.429688 115.027344 319.441406 113.832031 312.804688 C 113.375 310.355469 116.003906 309.800781 116.296875 312.363281 Z M 116.296875 312.363281 " fill-opacity="1" fill-rule="evenodd"/></g></g></g></g><g clip-path="url(#e82d8bab0a)"><g clip-path="url(#1b9c1f9210)"><g clip-path="url(#c8ec9ba715)"><g clip-path="url(#3b09a0bdef)"><path fill="#010101" d="M 115.617188 307.761719 C 115.605469 308.785156 115.003906 309.640625 114.273438 309.636719 C 113.542969 309.636719 112.949219 308.789062 112.960938 307.738281 C 112.972656 306.6875 113.574219 305.835938 114.304688 305.835938 C 115.03125 305.835938 115.625 306.710938 115.617188 307.761719 Z M 115.617188 307.761719 " fill-opacity="1" fill-rule="evenodd"/></g></g></g></g><g clip-path="url(#bdf19e76e9)"><g clip-path="url(#96f4845e86)"><g clip-path="url(#6a475cbf57)"><g clip-path="url(#744c21a021)"><path fill="#010101" d="M 107.257812 327.234375 C 112.472656 333.820312 117.800781 338.953125 125.394531 343.195312 C 126.804688 343.996094 127.570312 345.316406 124.957031 344.273438 C 117.398438 341.253906 110.230469 334.488281 105.664062 327.683594 C 103.449219 324.367188 105.09375 324.527344 107.257812 327.234375 Z M 107.257812 327.234375 " fill-opacity="1" fill-rule="evenodd"/></g></g></g></g><g clip-path="url(#461d5fd065)"><g clip-path="url(#34ce55d643)"><g clip-path="url(#cd93441d78)"><path fill="#010101" d="M 28.011719 179.554688 C 27.886719 179.800781 27.914062 180.023438 28.097656 180.230469 C 28.179688 179.90625 28.433594 179.695312 28.375 179.34375 C 28.25 179.402344 28.203125 179.605469 28.011719 179.554688 Z M 28.011719 179.554688 " fill-opacity="1" fill-rule="nonzero"/></g></g></g><g clip-path="url(#dfd6f230d7)"><g clip-path="url(#1c55629b16)"><g clip-path="url(#2d706a8541)"><path fill="#010101" d="M 22.414062 119.324219 C 25.449219 121.132812 26.890625 123.882812 27 127.363281 C 26.988281 127.964844 27.15625 128.511719 27.5 129.003906 C 28.230469 130.03125 28.925781 131.089844 29.648438 132.125 C 30.472656 133.308594 31.152344 134.585938 32.03125 135.855469 C 32.089844 134.722656 32.265625 133.609375 32.566406 132.515625 C 32.921875 131.105469 33.742188 129.9375 34.617188 128.828125 C 35.375 127.863281 36.121094 127.78125 36.953125 128.382812 C 37.171875 128.589844 37.320312 128.835938 37.398438 129.128906 C 38.75 133.273438 38.101562 136.984375 34.921875 140.109375 C 34.503906 140.515625 34.449219 140.792969 34.714844 141.304688 C 36.332031 144.410156 37.789062 147.589844 39.078125 150.847656 C 39.1875 151.125 39.199219 151.507812 39.621094 151.597656 C 39.957031 148.996094 40.699219 146.550781 42.273438 144.414062 C 42.730469 143.714844 43.308594 143.140625 44.007812 142.691406 C 45.171875 142.015625 46.234375 142.394531 46.710938 143.640625 C 47.035156 144.449219 47.152344 145.289062 47.058594 146.15625 C 46.519531 150.136719 45.238281 153.734375 41.832031 156.210938 C 41.300781 156.597656 41.253906 156.96875 41.453125 157.527344 C 42.769531 161.476562 43.804688 165.492188 44.566406 169.585938 C 44.585938 169.820312 44.582031 170.054688 44.554688 170.292969 L 44.808594 170.253906 C 45.878906 167.3125 47.417969 164.640625 49.429688 162.238281 C 50.238281 161.210938 51.203125 160.351562 52.3125 159.660156 C 53.023438 159.246094 53.777344 158.996094 54.59375 159.199219 C 55.609375 159.464844 56.160156 160.40625 56.101562 161.792969 C 55.988281 164.105469 55.222656 166.175781 53.796875 168.003906 C 51.71875 170.757812 49.195312 172.980469 45.851562 174.070312 C 45.265625 174.257812 45.40625 174.566406 45.449219 174.933594 C 45.929688 178.5625 46.148438 182.203125 46.105469 185.867188 C 46.152344 185.921875 46.148438 186.0625 46.226562 186.035156 C 46.394531 185.960938 46.472656 185.835938 46.46875 185.652344 C 46.644531 185.277344 46.816406 184.902344 47 184.53125 C 48.199219 182.148438 49.726562 180.027344 52.042969 178.621094 C 54.359375 177.210938 56.222656 178.261719 56.402344 180.910156 C 56.40625 181.019531 56.410156 181.125 56.410156 181.234375 C 55.882812 183.417969 54.882812 185.355469 53.414062 187.054688 C 51.511719 188.910156 49.226562 190.230469 46.808594 191.332031 C 46.140625 191.632812 45.875 191.945312 45.800781 192.644531 C 45.523438 195.109375 44.996094 197.519531 44.226562 199.878906 C 44.015625 200.542969 43.664062 201.050781 42.859375 200.992188 L 42.5625 200.808594 C 42.152344 200.234375 42.246094 199.644531 42.445312 199.015625 C 43.164062 196.714844 43.652344 194.367188 43.917969 191.976562 C 43.417969 192.054688 42.984375 192.101562 42.5625 192.195312 C 40.585938 192.621094 38.648438 192.5 36.742188 191.839844 C 34.84375 191.222656 33.074219 190.390625 31.761719 188.820312 C 30.449219 187.253906 30.589844 185.546875 32.078125 184.179688 C 32.683594 183.617188 33.378906 183.214844 34.167969 182.96875 C 34.953125 182.722656 35.753906 182.65625 36.566406 182.773438 C 39.34375 183.070312 41.625 184.382812 43.617188 186.265625 C 43.816406 186.457031 43.976562 186.703125 44.34375 186.722656 C 44.433594 183.199219 44.277344 179.683594 43.875 176.183594 C 43.796875 175.464844 43.492188 175.765625 43.136719 175.914062 C 39.554688 177.390625 35.890625 177.917969 32.09375 176.921875 C 30.585938 176.527344 29.234375 175.871094 28.207031 174.648438 C 26.246094 172.261719 27.304688 168.996094 30.28125 168.273438 C 31.734375 167.921875 33.195312 167.898438 34.660156 168.195312 C 37.644531 168.796875 40.410156 169.980469 43.191406 171.582031 C 42.386719 166.953125 41.246094 162.414062 39.765625 157.957031 C 36.269531 159.78125 32.855469 159.523438 29.457031 157.878906 C 28.570312 157.449219 27.976562 156.78125 28.046875 155.738281 C 28.121094 154.691406 28.835938 154.03125 29.734375 153.644531 C 30.949219 153.109375 32.21875 152.820312 33.546875 152.777344 C 34.871094 152.734375 36.15625 152.941406 37.398438 153.398438 C 37.652344 153.488281 37.910156 153.5625 38.269531 153.675781 C 36.925781 150.011719 35.378906 146.582031 33.742188 143.195312 C 33.433594 142.566406 33.269531 142.429688 32.582031 142.859375 C 29.414062 144.839844 26.136719 144.894531 22.867188 143.132812 C 21.46875 142.375 21.214844 141.042969 22.066406 139.683594 C 22.457031 139.097656 22.980469 138.683594 23.636719 138.433594 C 25.613281 137.621094 27.605469 137.777344 29.613281 138.257812 C 30.128906 138.378906 30.628906 138.625 31.265625 138.578125 C 29.605469 135.648438 27.824219 132.890625 25.9375 130.195312 C 25.742188 129.925781 25.484375 129.746094 25.164062 129.65625 C 24.28125 129.382812 23.488281 128.945312 22.789062 128.34375 C 22.089844 127.738281 21.539062 127.019531 21.140625 126.1875 C 20.125 124.226562 19.519531 122.191406 19.753906 119.945312 L 20.035156 119.5 C 20.902344 118.785156 21.429688 118.738281 22.414062 119.324219 Z M 47.578125 187.699219 C 48.929688 186.726562 49.761719 185.34375 51.226562 184.632812 C 50.507812 186.148438 49.121094 186.976562 48.167969 188.175781 C 47.835938 188.28125 47.683594 188.574219 47.417969 188.820312 C 47.792969 188.980469 47.945312 188.746094 48.121094 188.59375 C 50.417969 187.1875 52.65625 185.722656 54.101562 183.34375 C 54.617188 182.53125 54.796875 181.652344 54.644531 180.703125 C 54.488281 179.769531 54.109375 179.554688 53.230469 179.960938 C 52.097656 180.492188 51.257812 181.378906 50.484375 182.3125 C 49.183594 183.929688 48.214844 185.726562 47.578125 187.699219 Z M 42.089844 187.273438 C 40.429688 185.777344 38.570312 184.75 36.316406 184.523438 C 35.238281 184.371094 34.273438 184.636719 33.421875 185.316406 C 32.417969 186.132812 32.34375 186.921875 33.242188 187.851562 C 34.585938 189.253906 36.324219 189.933594 38.164062 190.414062 C 39.921875 190.875 41.648438 190.679688 43.371094 190.238281 C 43.539062 189.972656 43.414062 189.894531 43.164062 189.878906 C 41.339844 189.480469 39.523438 189.085938 38.039062 187.78125 C 39.929688 188.210938 41.667969 189.179688 43.679688 189.21875 C 43.289062 188.453125 42.757812 187.804688 42.089844 187.273438 Z M 46.59375 170.492188 C 46.558594 170.582031 46.449219 170.6875 46.621094 170.847656 C 48.078125 169.597656 49.09375 167.929688 50.613281 166.726562 C 50.691406 167.035156 50.414062 167.226562 50.359375 167.488281 C 49.769531 168.5625 48.796875 169.335938 48.113281 170.324219 C 47.785156 170.441406 47.667969 170.761719 47.460938 171.003906 C 46.921875 171.328125 46.519531 171.773438 46.25 172.34375 C 46.703125 172.058594 46.96875 171.886719 47.238281 171.71875 C 50.476562 169.707031 53.105469 167.195312 54.121094 163.363281 C 54.253906 162.820312 54.328125 162.265625 54.347656 161.707031 C 54.378906 160.875 54.089844 160.710938 53.328125 161.105469 C 52.230469 161.667969 51.414062 162.570312 50.632812 163.488281 C 48.871094 165.582031 47.523438 167.917969 46.59375 170.492188 Z M 38.175781 171.097656 C 36.125 170.328125 34.042969 169.589844 31.769531 169.832031 C 31.417969 169.859375 31.070312 169.910156 30.722656 169.984375 C 28.957031 170.398438 28.375 172.183594 29.546875 173.589844 C 30.273438 174.398438 31.167969 174.929688 32.226562 175.179688 C 35.582031 176.148438 38.847656 175.722656 42.058594 174.492188 C 42.277344 174.410156 42.488281 174.320312 42.722656 174.226562 C 42.472656 173.722656 42.027344 173.941406 41.667969 173.9375 C 40.203125 173.945312 38.734375 174.082031 37.320312 173.570312 C 37.15625 173.511719 37.007812 173.417969 36.617188 173.226562 C 38.648438 173.207031 40.417969 173.433594 42.429688 173.214844 C 41.082031 172.375 39.664062 171.667969 38.183594 171.101562 Z M 43 150.253906 C 43.175781 150.171875 43.191406 149.894531 43.429688 149.886719 C 43.140625 151.417969 42.238281 152.695312 41.671875 154.125 C 43.5625 153.445312 46.3125 146.234375 44.996094 144.21875 C 42.984375 145.25 40.976562 150.164062 41.324219 153.253906 C 42.070312 152.335938 42.335938 151.183594 43 150.253906 Z M 30.5 155.214844 C 30.203125 155.335938 29.851562 155.5 29.855469 155.867188 C 29.855469 156.234375 30.230469 156.292969 30.480469 156.414062 C 32.9375 157.582031 35.480469 157.898438 38.0625 156.828125 C 38.355469 156.707031 38.886719 156.632812 38.796875 156.246094 C 38.679688 155.800781 38.203125 155.910156 37.816406 156.003906 C 36.917969 156.171875 36.011719 156.222656 35.097656 156.160156 C 34.878906 156.160156 34.621094 156.191406 34.453125 155.855469 C 35.394531 155.367188 36.460938 155.683594 37.558594 155.355469 C 36.445312 154.835938 35.277344 154.5625 34.046875 154.539062 C 32.820312 154.515625 31.636719 154.738281 30.5 155.214844 Z M 24.699219 139.925781 C 24.386719 140.019531 24.097656 140.160156 23.828125 140.34375 C 23.152344 140.832031 23.160156 141.410156 23.90625 141.757812 C 26.40625 142.925781 28.898438 142.949219 31.335938 141.445312 L 27.996094 141.53125 C 28.875 140.625 30.070312 141.011719 31.277344 140.582031 C 28.992188 139.882812 26.921875 139.207031 24.699219 139.925781 Z M 34.304688 138.070312 C 34.703125 136.75 35.097656 135.480469 35.464844 134.199219 C 35.519531 134.003906 35.503906 133.742188 35.765625 133.785156 C 36.027344 133.824219 35.804688 134.085938 35.863281 134.21875 C 36.070312 134.71875 35.625 135.15625 35.769531 135.648438 C 35.359375 135.914062 35.445312 136.417969 35.230469 136.78125 C 35.074219 136.992188 35.0625 137.210938 35.191406 137.433594 C 35.457031 137.21875 35.59375 136.9375 35.609375 136.597656 C 35.695312 136.304688 36.011719 136.078125 35.855469 135.71875 C 36.40625 135.1875 36.261719 134.484375 36.332031 133.824219 C 36.453125 132.664062 36.324219 131.53125 35.953125 130.425781 C 34.4375 131.570312 33.46875 136.089844 34.304688 138.070312 Z M 21.433594 121.359375 C 21.757812 123.796875 22.492188 126.046875 24.617188 127.5625 C 24.691406 127.617188 24.769531 127.65625 24.851562 127.679688 C 24.894531 127.707031 24.957031 127.683594 25.097656 127.683594 C 24.761719 126.675781 23.917969 125.960938 23.636719 124.871094 C 24.367188 124.890625 24.417969 125.6875 25.003906 125.882812 C 24.785156 124.945312 24.410156 124.074219 23.882812 123.269531 C 23.355469 122.464844 22.703125 121.777344 21.933594 121.207031 C 21.726562 121.027344 21.375 120.855469 21.433594 121.359375 Z M 21.433594 121.359375 " fill-opacity="1" fill-rule="nonzero"/></g></g></g><g clip-path="url(#e355896c91)"><g clip-path="url(#d32d241037)"><g clip-path="url(#925129490c)"><path fill="#010101" d="M 25.054688 183.5625 C 25.195312 183.640625 25.261719 183.757812 25.257812 183.921875 C 25.507812 183.945312 25.71875 183.863281 25.890625 183.675781 C 25.777344 183.570312 25.644531 183.507812 25.492188 183.484375 C 25.335938 183.464844 25.191406 183.488281 25.054688 183.5625 Z M 25.054688 183.5625 " fill-opacity="1" fill-rule="nonzero"/></g></g></g></svg>