<svg width="32" height="33" viewBox="0 0 32 33" fill="none" xmlns="http://www.w3.org/2000/svg">
<path d="M16.0036 8.28375C11.4632 8.28375 7.801 11.946 7.801 16.4863C7.801 21.0266 11.4632 24.6889 16.0036 24.6889C20.5439 24.6889 24.2061 21.0266 24.2061 16.4863C24.2061 11.946 20.5439 8.28375 16.0036 8.28375ZM16.0036 21.8191C13.0695 21.8191 10.6708 19.4275 10.6708 16.4863C10.6708 13.5451 13.0624 11.1536 16.0036 11.1536C18.9448 11.1536 21.3363 13.5451 21.3363 16.4863C21.3363 19.4275 18.9376 21.8191 16.0036 21.8191ZM26.4549 7.94822C26.4549 9.01191 25.5982 9.86144 24.5417 9.86144C23.478 9.86144 22.6284 9.00478 22.6284 7.94822C22.6284 6.89167 23.4851 6.035 24.5417 6.035C25.5982 6.035 26.4549 6.89167 26.4549 7.94822ZM31.8876 9.88999C31.7662 7.32714 31.1808 5.05698 29.3033 3.18659C27.4329 1.31621 25.1627 0.73082 22.5999 0.602321C19.9585 0.452404 12.0415 0.452404 9.40011 0.602321C6.84439 0.723682 4.57423 1.30907 2.69671 3.17945C0.819186 5.04984 0.240937 7.32 0.112437 9.88286C-0.0374791 12.5242 -0.0374791 20.4412 0.112437 23.0826C0.233798 25.6455 0.819186 27.9156 2.69671 29.786C4.57423 31.6564 6.83726 32.2418 9.40011 32.3703C12.0415 32.5202 19.9585 32.5202 22.5999 32.3703C25.1627 32.2489 27.4329 31.6636 29.3033 29.786C31.1737 27.9156 31.7591 25.6455 31.8876 23.0826C32.0375 20.4412 32.0375 12.5314 31.8876 9.88999ZM28.4752 25.9168C27.9183 27.316 26.8404 28.394 25.434 28.9579C23.3281 29.7932 18.3308 29.6004 16.0036 29.6004C13.6763 29.6004 8.67195 29.786 6.57312 28.9579C5.1739 28.4011 4.09593 27.3231 3.53196 25.9168C2.69671 23.8108 2.88946 18.8136 2.88946 16.4863C2.88946 14.159 2.70385 9.15469 3.53196 7.05586C4.08879 5.65664 5.16676 4.57867 6.57312 4.0147C8.67909 3.17945 13.6763 3.3722 16.0036 3.3722C18.3308 3.3722 23.3352 3.18659 25.434 4.0147C26.8332 4.57153 27.9112 5.6495 28.4752 7.05586C29.3104 9.16183 29.1177 14.159 29.1177 16.4863C29.1177 18.8136 29.3104 23.8179 28.4752 25.9168Z" fill="white"/>
</svg>
