<svg width="32" height="27" viewBox="0 0 32 27" fill="none" xmlns="http://www.w3.org/2000/svg">
<path d="M28.7107 6.97712C28.7311 7.26137 28.7311 7.54568 28.7311 7.82994C28.7311 16.5 22.1321 26.4899 10.0711 26.4899C6.35534 26.4899 2.90357 25.4137 0 23.5457C0.52794 23.6066 1.0355 23.6269 1.58376 23.6269C4.64971 23.6269 7.47209 22.5914 9.72591 20.8249C6.84265 20.764 4.42639 18.8757 3.59389 16.2767C4.00002 16.3375 4.40608 16.3782 4.83252 16.3782C5.42133 16.3782 6.01021 16.2969 6.5584 16.1548C3.55333 15.5457 1.29944 12.9061 1.29944 9.71826V9.63707C2.17251 10.1244 3.18783 10.4289 4.26389 10.4695C2.49739 9.29182 1.34007 7.28168 1.34007 5.00755C1.34007 3.7893 1.66488 2.67254 2.23345 1.69791C5.4619 5.67762 10.3147 8.27656 15.7563 8.56088C15.6548 8.07356 15.5939 7.566 15.5939 7.05837C15.5939 3.44411 18.5178 0.499969 22.1523 0.499969C24.0406 0.499969 25.7462 1.29185 26.9442 2.57104C28.4264 2.28679 29.8477 1.73854 31.1066 0.987284C30.6192 2.51016 29.5837 3.78936 28.2234 4.60149C29.5432 4.45942 30.8224 4.09386 32 3.58629C31.1067 4.88574 29.9899 6.04305 28.7107 6.97712Z" fill="white"/>
</svg>
